PathFileType	4	(X/Y/Z)	/home/abdul/Desktop/myosuite/custom_workspace/IK/output/S5_12_2.trc
DataRate	CameraRate	NumFrames	NumMarkers	Units	OrigDataRate	OrigDataStartFrame	OrigNumFrames
200.0	200.0	45	3	mm	200.0	699	1396
Frame#	Time	V_Shoulder			V_Elbow			V_Wrist		
		X1	Y1	Z1	X2	Y2	Z2	X3	Y3	Z3

699	3.49	0.9619656329343557	753.5810783767961	256.4059077088353	-66.51826873301441	486.49985225414105	134.26147082533006	62.63055242261746	567.2314007740761	320.1830590017232
700	3.495	0.9843344666126171	753.563540361296	256.4088793329017	-66.80992933726563	486.6511770912646	133.93273377287517	62.44470619801288	566.8886881674739	320.0195314629942
701	3.5	1.0078456479109652	753.5495036931137	256.41230518079266	-67.12047335968293	486.8156714518381	133.595169562889	62.24823200675638	566.5295562357079	319.85192920779593
702	3.505	1.0324963681305959	753.539003702104	256.41620680518326	-67.45002671144371	486.9936078003816	133.24872024372496	62.04098588745009	566.1535945281798	319.6801743153464
703	3.51	1.0582823331290105	753.5320694105384	256.4206055323485	-67.79868975683723	487.18524406184395	132.89334109919793	61.82283587494505	565.7603998016915	319.50418728353543
704	3.515	1.0851977757391256	753.5287234073776	256.4255224205289	-68.16653682059584	487.39082286481425	132.5290009390277	61.59366232476087	565.3495767744168	319.3238868373095
705	3.52	1.1132354720327355	753.5289817344659	256.4309782182892	-68.55361576014003	487.61057080884336	132.15568235811995	61.353358200779496	564.9207388559655	319.1391897349993
706	3.525	1.1423867613815075	753.5328537850165	256.4369933229644	-68.95994760482344	487.84469775837647	131.7733819636745	61.101829324665786	564.4735088508569	318.9500105731645
707	3.53	1.1726415702551778	753.540342214742	256.44358773929116	-69.38552626402887	488.0933961657624	131.38211056919292	60.838994585612866	564.0075196328578	318.7562615905075
708	3.535	1.2039884396833191	753.5514428659461	256.4507810383197	-69.83031830571733	488.35684042575167	130.9818933545432	60.5647861091649	563.5224147877916	318.55785247139283
709	3.54	1.2364145562938853	753.5661447048711	256.4585923167049	-70.2942628067733	488.6351862638394	130.57276999132856	60.279149384035655	563.0178492225816	318.35469014948177
710	3.545	1.2699057868288228	753.5844297725611	256.4670401564727	-70.7772712762196	488.92857016073117	130.15479473290267	59.98204334601587	562.493489738478	318.1466786119788
711	3.55	1.304446716024401	753.6062731494658	256.47614258535947	-71.27922765209696	489.2371088151341	129.7280364684715	59.67344041824537	561.9490155666037	317.93371870496185
712	3.555	1.3400206877316372	753.6316429339907	256.48591703782023	-71.79998837251792	489.5608986469746	129.29257874082282	59.35332650731742	561.3841188641567	317.7157079402517
713	3.56	1.3766098491402454	753.6605002351498	256.4963803168	-72.33938252111187	489.90001534304275	128.8485197273307	59.02170095488016	560.7985051698217	317.49254030426016
714	3.565	1.4141951979580822	753.6927991794555	256.5075485563636	-72.89721204678278	490.2545134469474	128.3959721839877	58.678576444604246	560.1918938171666	317.264106069238
715	3.57	1.4527566323870957	753.7284869321384	256.5194371852743	-73.47325205740077	490.62442599513747	127.93506335233084	58.323978864593975	559.5640183050264	317.0302916073322
716	3.575	1.4922730037263305	753.7675037327617	256.5320608916129	-74.06725118674777	491.00976420061306	127.46593482923677	57.957947125532044	558.9146266241212	316.7909792078483
717	3.58	1.5327221714226857	753.8097829452495	256.545433588523	-74.67893203373697	491.4105171858013	126.98874239967847	57.58053293506311	558.2434815393923	316.5460468981049
718	3.585	1.5740810603808988	753.8552511223247	256.5595683811692	-75.3079916726263	491.82665176591877	126.50365583264878	57.19180052913771	557.55036082779	316.2953682682597
719	3.59	1.6163257203356824	753.903828084306	256.5744775349886	-75.95410223265056	492.25811228397953	126.01085864057394	56.7918263612548	556.8350574714987	316.0388123004809
720	3.595	1.6594313870810777	753.9554270121802	256.5901724453151	-76.61691154520634	492.70482049843974	125.51054780265676	56.380698750757276	556.0973798068295	315.7762432028351
721	3.6	1.7033725453450248	754.0099545548343	256.6066636084508	-77.29604385643945	493.16667552429	125.00293345270484	55.95851749154771	555.3371516292664	315.5075202482651
722	3.605	1.7481229930908118	754.0673109502897	256.6239605942567	-77.99110060280942	493.64355382822487	124.48823853211627	55.52539342280191	554.5542122553952	315.2324976190303
723	3.61	1.793655907021611	754.1273901607468	256.6420720203278	-78.70166124693941	494.1353092783308	123.96669840880945	55.08144796346248	553.7484165426915	314.9510242569917
724	3.615	1.8399439090596192	754.190080021218	256.6610055278176	-79.42728417080596	494.6417732485403	123.43856046299712	54.62681261249344	552.919634868379	314.66294372012817
725	3.62	1.886959133567579	754.2552624014793	256.68076775896765	-80.16750762308129	495.1627547779052	122.90408364081615	54.16162841706835	552.0677530688051	314.368094045685
726	3.625	1.9346732950775725	754.3228133810525	256.70136433639743	-80.92185071721325	495.69804078454126	122.36353797693238	53.68604541104667	551.1926723409985	314.0663076203662
727	3.63	1.9830577562900016	754.392603436882	256.7227998442017	-81.68981447661736	496.24739633389845	121.81720408734611	53.20022202626603	550.2943091082902	313.7574110579985
728	3.635	2.032083596104604	754.4644976433466	256.745077810899	-82.47088292316022	496.8105649608083	121.26537263372484	52.70432447933973	549.3725948520823	313.4412250851135
729	3.64	2.081721677445249	754.5383558842068	256.7682006942688	-83.26452420493669	497.3872690445605	120.70834376068782	52.198526136797845	548.4274759120315	313.11756443491447
730	3.645	2.1319427146410797	754.6140330760663	256.792169868111	-84.07019175918647	497.97721023606437	120.1464265075603	51.68300686154679	547.4589132570977	312.7862377501153
731	3.65	2.1827173401283257	754.6913794028848	256.81698561095345	-84.88732550605748	498.5800699359494	119.57993819620279	51.157952343743574	546.4668822300605	312.4470474951635
732	3.655	2.2340161702398347	754.7702405610584	256.8426470967308	-85.71535306880703	499.1955098222734	119.0092037966034	50.623553419288086	545.4513722682555	312.0997898783829
733	3.66	2.285809869852964	754.8504580145564	256.8691523874493	-86.55369101593666	499.8231724263157	118.43455527199848	50.0800053792269	544.4123866034047	311.7442547845995
734	3.665	2.3380692156710903	754.9318692595676	256.89649842784974	-87.40174612068307	500.4626817547495	117.85633090535615	49.52750727343638	543.3499419435254	311.3802257188371
735	3.67	2.3907651579194265	755.0143080980976	256.9246810420721	-88.25891663323709	501.1136439563179	117.27487460912184	48.96626121200909	542.2640681399921	311.00747976170044
736	3.675	2.44386888024223	755.097604919923	256.95369493232295	-89.12459356103456	501.7756480309641	116.69053522018126	48.39647166780619	541.1548078428898	310.6257875370869
737	3.68	2.4973518575956812	755.1815869922934	256.9835336795387	-89.99816195245799	502.44826657921294	116.10366578204643	47.81834478365862	540.0222161478538	310.2349131928959
738	3.685	2.551185911938825	755.2660787567532	257.014189746034	-90.8790021793057	503.1310565894487	115.51462281631156	47.23208768770151	538.8663602376148	309.83461439543123
739	3.69	2.605343265533851	755.3509021324285	257.04565448011834	-91.76649121342577	503.8235602605959	114.92376558546098	46.63790782030884	537.687319021476	309.4246423382168
740	3.695	2.659796591676636	755.435876825118	257.07791812265936	-92.66000389297486	504.5253058575837	114.33145534913714	46.03601227605908	536.4851827759378	309.0047417659662
741	3.7	2.7145190626889026	755.5208206415042	257.1109698155656	-93.55891417384728	505.23580859685603	113.73805461599548	45.4266071641073	535.2600527896502	308.5746510144719
742	3.705	2.769484395014445	755.6055498077945	257.14479761215784	-94.46259636192607	505.95457155908895	113.14392639328403	44.809896990265074	534.0120410158141	308.1341020671959
743	3.71	2.8246668912736657	755.6898792920821	257.1793884893905	-95.37042632193494	506.6810866261835	112.5494334362871	44.186084063997015	532.7412697350826	307.6828206293592
